<?xml version="1.0" encoding="iso-8859-1"?>
<!-- Uploaded to: SVG Repo, www.svgrepo.com, Generator: SVG Repo Mixer Tools -->
<svg version="1.1" id="Layer_1" xmlns="http://www.w3.org/2000/svg" xmlns:xlink="http://www.w3.org/1999/xlink" 
	 viewBox="0 0 512 512" xml:space="preserve">
<rect id="SVGCleanerId_0" x="18.608" y="121.468" style="fill:#FFFFFF;" width="474.8" height="340.312"/>
<polyline style="fill:#38C6B4;" points="16,159.62 16,52.868 194.336,52.868 263.408,120.692 "/>
<polygon style="fill:#222077;" points="32,159.62 0,159.62 0,36.876 200.872,36.876 274.616,109.276 252.192,132.1 187.8,68.876 
	32,68.876 "/>
<rect id="SVGCleanerId_1" x="26.768" y="116.164" style="fill:#DBDBDB;" width="458.48" height="48"/>
<path id="SVGCleanerId_2" style="fill:#222077;" d="M480,140.132v302.992H32V140.132H480 M512,108.132H0v366.992h512V108.132
	L512,108.132z"/>
<path id="SVGCleanerId_3" style="fill:#222077;" d="M214.048,366.452l-110.704-48.144v-26.656l110.704-47.92v31.4l-77.216,29.52
	l77.216,30.624V366.452z"/>
<path id="SVGCleanerId_4" style="fill:#222077;" d="M224.296,387.596l39.976-166.992h23.24l-40.416,166.992H224.296z"/>
<path id="SVGCleanerId_5" style="fill:#222077;" d="M297.76,366.564v-31.176l77.328-30.4l-77.328-30.072v-30.952l110.808,47.92
	v26.432L297.76,366.564z"/>
<g>
	<rect id="SVGCleanerId_0_1_" x="18.608" y="121.468" style="fill:#FFFFFF;" width="474.8" height="340.312"/>
</g>
<polyline style="fill:#38C6B4;" points="16,159.62 16,52.868 194.336,52.868 263.408,120.692 "/>
<polygon style="fill:#222077;" points="32,159.62 0,159.62 0,36.876 200.872,36.876 274.616,109.276 252.192,132.1 187.8,68.876 
	32,68.876 "/>
<g>
	<rect id="SVGCleanerId_1_1_" x="26.768" y="116.164" style="fill:#DBDBDB;" width="458.48" height="48"/>
</g>
<g>
	<path id="SVGCleanerId_2_1_" style="fill:#222077;" d="M480,140.132v302.992H32V140.132H480 M512,108.132H0v366.992h512V108.132
		L512,108.132z"/>
</g>
<g>
	<path id="SVGCleanerId_3_1_" style="fill:#222077;" d="M214.048,366.452l-110.704-48.144v-26.656l110.704-47.92v31.4l-77.216,29.52
		l77.216,30.624V366.452z"/>
</g>
<g>
	<path id="SVGCleanerId_4_1_" style="fill:#222077;" d="M224.296,387.596l39.976-166.992h23.24l-40.416,166.992H224.296z"/>
</g>
<g>
	<path id="SVGCleanerId_5_1_" style="fill:#222077;" d="M297.76,366.564v-31.176l77.328-30.4l-77.328-30.072v-30.952l110.808,47.92
		v26.432L297.76,366.564z"/>
</g>
</svg>